<svg xmlns="http://www.w3.org/2000/svg" viewBox="0 0 49.25 49.25">
  <defs>
    <style>
      .cls-1 {
        fill: #fefefe;
      }
    </style>
  </defs>
  <title>Asset 1</title>
  <g id="Layer_2" data-name="Layer 2">
    <g id="Layer_1-2" data-name="Layer 1">
      <path class="cls-1" d="M24.63,0A24.62,24.62,0,1,0,49.25,24.62,24.63,24.63,0,0,0,24.63,0ZM37,19.66c0,.27,0,.53,0,.8,0,8.2-6.24,17.66-17.66,17.66a17.57,17.57,0,0,1-9.51-2.79,12.69,12.69,0,0,0,1.48.09,12.45,12.45,0,0,0,7.71-2.66,6.21,6.21,0,0,1-5.8-4.31,6.06,6.06,0,0,0,1.17.11,6.17,6.17,0,0,0,1.64-.22,6.21,6.21,0,0,1-5-6.08s0-.05,0-.08A6.18,6.18,0,0,0,13.9,23,6.21,6.21,0,0,1,12,14.67a17.62,17.62,0,0,0,12.79,6.48A6.21,6.21,0,0,1,35.35,15.5,12.4,12.4,0,0,0,39.29,14a6.22,6.22,0,0,1-2.73,3.43,12.41,12.41,0,0,0,3.56-1A12.54,12.54,0,0,1,37,19.66Z"/>
    </g>
  </g>
</svg>
